<?xml version="1.0" standalone="no"?>
<!DOCTYPE svg PUBLIC "-//W3C//DTD SVG 20010904//EN"
 "http://www.w3.org/TR/2001/REC-SVG-20010904/DTD/svg10.dtd">
<svg version="1.0" xmlns="http://www.w3.org/2000/svg"
 width="275" height="110" viewBox="0 0 1280.000000 658.000000" fill="none"
 preserveAspectRatio="xMidYMid meet">
<metadata>
Created by potrace 1.15, written by Peter Selinger 2001-2017
</metadata>
<g transform="translate(0.000000,658.000000) scale(0.100000,-0.100000)"
fill="#607d8b" stroke="none">
<path d="M6810 6362 c-80 -27 -112 -46 -152 -90 -65 -72 -73 -186 -23 -362 13
-47 29 -116 36 -155 6 -40 19 -79 30 -90 10 -11 34 -55 53 -97 26 -57 32 -79
23 -86 -7 -5 -73 -40 -147 -77 -74 -37 -143 -75 -154 -84 -10 -9 -29 -37 -42
-63 -31 -61 -57 -78 -119 -78 -107 0 -256 -43 -270 -77 -8 -22 -2 -25 55 -31
59 -5 63 -19 29 -90 -33 -68 -99 -99 -151 -71 -33 18 -84 144 -132 328 -45
171 -59 209 -80 223 -16 11 -161 9 -236 -3 -81 -13 -142 -48 -178 -101 -25
-39 -27 -48 -27 -152 0 -109 1 -112 41 -196 22 -47 68 -121 102 -166 74 -97
238 -256 315 -304 31 -19 56 -41 57 -47 0 -10 -61 -13 -275 -13 -151 0 -275 2
-275 5 0 2 -23 96 -51 207 -64 254 -131 460 -172 530 -30 49 -40 57 -134 103
-56 28 -102 55 -102 62 -1 7 15 25 35 40 66 50 86 141 37 167 l-27 14 51 26
c82 41 101 89 68 170 -14 33 -14 52 2 194 9 86 13 170 9 185 -16 66 -95 101
-266 118 -332 34 -440 -65 -440 -407 0 -78 5 -119 25 -184 14 -46 25 -106 25
-134 0 -103 -52 -141 -241 -176 -63 -12 -139 -33 -170 -47 -54 -24 -58 -28
-93 -102 -20 -42 -51 -122 -70 -178 -128 -379 -266 -554 -440 -557 l-58 -1
-38 140 c-43 154 -81 251 -111 284 -17 18 -31 21 -107 21 -107 0 -132 6 -132
32 0 10 4 17 9 14 5 -3 30 -7 55 -8 78 -2 116 52 160 230 32 126 43 204 56
387 16 234 -8 318 -123 442 -135 144 -347 189 -506 108 -55 -27 -133 -104
-167 -161 -97 -165 -144 -495 -94 -656 24 -78 26 -177 3 -225 -32 -68 -143
-123 -282 -139 l-61 -7 -84 81 c-90 87 -129 111 -220 137 l-59 17 6 107 c4 60
18 152 32 211 21 81 28 141 32 263 l6 158 -57 56 c-32 30 -83 67 -114 81 -52
25 -68 27 -182 27 -114 0 -130 -2 -180 -26 -76 -35 -121 -77 -158 -147 -51
-96 -63 -158 -69 -357 l-6 -180 42 -82 c41 -82 41 -83 19 -87 -111 -21 -145
-31 -197 -57 -80 -40 -175 -142 -228 -244 -22 -44 -65 -138 -93 -210 -29 -71
-66 -156 -81 -187 l-29 -57 0 -1416 0 -1415 96 0 97 0 -58 -42 c-161 -120
-255 -342 -242 -578 7 -128 25 -200 78 -308 99 -204 263 -303 476 -289 218 13
386 191 414 437 6 52 9 120 7 150 l-3 55 -237 3 -238 2 0 -90 0 -90 145 0 145
0 -6 -32 c-17 -92 -88 -188 -168 -230 -54 -28 -161 -22 -229 12 -56 28 -136
109 -166 168 -48 95 -66 261 -40 384 36 171 161 286 319 296 101 5 170 -20
249 -94 32 -30 61 -54 64 -54 3 0 29 29 57 65 l52 65 -27 36 c-15 20 -55 56
-89 81 -33 25 -63 47 -65 49 -2 2 93 4 212 4 l217 0 2 -592 3 -593 83 -3 82
-3 0 246 c0 238 1 245 20 245 11 0 20 -1 20 -2 0 -2 49 -111 110 -243 l110
-240 91 -3 c72 -2 90 0 86 10 -3 7 -44 99 -92 203 -48 105 -98 214 -111 243
l-23 52 29 15 c114 59 180 181 180 335 0 136 -46 239 -134 298 l-48 32 312 0
313 0 -39 -28 c-105 -77 -190 -204 -224 -337 -75 -293 2 -610 185 -758 89 -71
148 -91 275 -91 100 -1 109 1 174 33 137 67 246 218 281 389 22 109 20 316 -5
421 -34 142 -119 273 -225 349 l-30 22 230 -3 230 -2 5 -475 c7 -549 6 -547
91 -632 27 -27 75 -61 107 -76 49 -23 70 -27 147 -27 78 0 97 4 147 28 95 47
167 144 188 256 6 31 10 236 10 486 0 386 2 434 16 439 9 3 54 6 100 6 l84 0
0 -595 0 -595 85 0 85 0 0 239 0 239 63 7 c177 19 272 77 330 202 19 41 22 65
22 168 0 104 -3 127 -23 171 -28 62 -73 108 -138 140 l-49 23 543 1 542 0 0
-596 0 -596 213 4 c193 4 217 6 272 28 297 116 382 691 149 1011 -42 58 -92
96 -163 126 l-56 23 241 0 c182 0 244 -3 251 -12 6 -7 78 -158 162 -336 l151
-322 0 -260 0 -260 95 0 95 0 0 268 0 267 150 319 c82 176 155 323 162 328 7
4 46 8 86 8 l72 0 0 -595 0 -595 85 0 85 0 0 418 c1 398 2 416 18 387 9 -16
108 -203 218 -415 l202 -385 86 -3 86 -3 0 590 c0 528 2 589 16 595 24 9 484
7 484 -2 0 -8 -327 -1088 -350 -1155 l-9 -28 87 3 86 3 40 137 39 138 208 0
208 0 9 -33 c5 -17 22 -80 38 -140 l28 -107 83 0 c50 0 83 4 83 10 0 6 -79
269 -176 585 -96 316 -172 580 -169 585 4 6 102 10 261 10 l254 0 -5 -67 c-10
-119 -65 -1036 -65 -1080 l0 -43 70 0 69 0 5 33 c2 17 10 133 16 257 6 124 15
288 20 365 6 77 10 158 11 180 l1 40 11 -30 c6 -16 68 -212 137 -435 l125
-405 77 -3 77 -3 20 68 c11 37 71 240 133 451 l113 384 7 -69 c6 -55 48 -777
48 -821 0 -8 23 -12 76 -12 l76 0 -6 68 c-3 37 -11 139 -16 227 -5 88 -15 237
-21 330 -30 474 -34 546 -25 555 6 6 56 10 113 10 l103 0 0 -595 0 -595 90 0
90 0 2 593 3 592 215 2 c206 2 214 1 190 -15 -127 -87 -202 -185 -246 -320
-27 -81 -29 -97 -29 -252 0 -184 11 -245 68 -359 38 -78 130 -175 203 -213
146 -78 337 -76 471 4 29 18 80 59 113 93 l61 61 -51 67 c-28 37 -53 67 -57
67 -3 0 -32 -25 -64 -55 -78 -74 -145 -105 -230 -105 -37 0 -85 7 -108 15
-101 35 -185 128 -223 246 -30 93 -30 258 0 354 26 87 82 168 145 211 60 41
104 54 187 54 85 0 152 -31 231 -107 l61 -58 53 60 c30 33 54 66 55 73 0 17
-121 136 -162 159 l-33 18 175 3 c163 2 176 4 197 24 l23 22 16 -22 c8 -12 22
-22 30 -22 10 0 -1 -18 -30 -51 -76 -85 -107 -227 -71 -330 26 -73 58 -112
191 -231 70 -62 140 -133 156 -157 48 -77 35 -172 -33 -237 -35 -34 -87 -36
-128 -7 -24 19 -73 78 -96 117 -9 16 -17 12 -77 -34 l-68 -51 24 -47 c35 -69
87 -124 147 -157 46 -26 65 -30 129 -30 87 0 133 18 192 77 90 90 131 257 94
383 -25 81 -78 147 -205 255 -67 55 -132 118 -146 138 -32 47 -33 109 -4 162
44 77 108 73 182 -11 l44 -50 56 61 c32 34 57 65 57 70 0 4 -25 34 -55 66 -30
32 -55 60 -55 61 0 2 29 3 64 3 l64 0 6 708 c4 389 11 1017 16 1396 l9 690
-39 80 c-22 45 -51 124 -65 176 -84 306 -124 393 -222 481 -55 49 -125 81
-223 100 l-62 12 5 38 c3 20 20 59 38 86 l34 48 -1 150 c-2 225 -37 345 -131
446 -59 63 -121 95 -210 109 -188 29 -404 -75 -443 -214 -15 -55 -6 -127 26
-207 20 -48 24 -76 24 -161 0 -76 7 -128 25 -198 14 -52 25 -103 25 -112 0
-12 -17 -21 -57 -33 -152 -44 -235 -118 -278 -246 -8 -24 -26 -118 -39 -208
-27 -185 -42 -218 -73 -161 -73 133 -123 185 -300 310 -51 36 -95 73 -99 82
-3 10 0 34 8 53 16 45 6 63 -50 90 -23 11 -41 24 -42 29 0 6 19 32 41 59 l41
48 -5 152 c-6 187 -18 233 -127 497 -83 200 -112 246 -171 271 -43 17 -491 6
-584 -15 -196 -45 -297 -162 -282 -327 6 -66 20 -91 71 -125 l36 -25 0 -125 0
-126 45 -50 c83 -92 161 -292 139 -355 -8 -25 -29 -36 -194 -100 -102 -40
-194 -72 -205 -72 -13 0 -39 26 -75 76 -30 42 -73 90 -95 108 -79 63 -240 153
-305 169 -36 9 -75 24 -89 32 -22 15 -23 19 -15 78 18 122 9 243 -23 338 -90
262 -270 437 -460 446 -133 7 -298 -63 -396 -167 -59 -63 -77 -104 -77 -173 0
-71 14 -117 65 -218 37 -75 65 -162 65 -205 0 -8 -19 4 -42 28 -47 47 -123 79
-368 157 -100 32 -142 51 -164 72 -27 27 -28 33 -23 88 4 32 16 96 28 141 17
66 20 103 17 193 -6 168 -43 238 -153 288 -70 31 -263 37 -345 10z m1243
-1243 c138 -81 157 -102 137 -155 -16 -42 -55 -79 -146 -140 -94 -62 -135
-115 -189 -245 -42 -100 -54 -114 -114 -128 l-43 -9 7 66 c9 83 38 197 110
422 30 96 60 205 67 242 l11 67 44 -38 c24 -22 76 -58 116 -82z m-1625 -595
c13 -4 22 -14 22 -25 0 -18 -9 -19 -132 -18 -130 0 -132 1 -93 15 76 29 158
40 203 28z m-2650 -3341 c-3 -446 -4 -470 -23 -501 -61 -102 -244 -91 -294 17
-14 31 -16 95 -19 485 -2 360 0 451 10 457 7 5 84 9 171 9 l158 0 -3 -467z
m3348 435 c-60 -143 -191 -407 -197 -401 -17 18 -199 415 -193 424 3 5 95 9
205 9 l199 0 -14 -32z m984 -380 c0 -227 -4 -408 -8 -403 -17 19 -412 788
-412 801 0 11 39 14 210 14 l210 0 0 -412z m2154 390 c-4 -13 -67 -207 -142
-433 -74 -226 -137 -418 -139 -427 -3 -10 -8 -18 -12 -18 -10 1 -283 870 -277
886 4 12 51 14 291 14 l286 0 -7 -22z m-7549 -152 c84 -39 144 -119 181 -241
22 -74 25 -255 5 -335 -31 -124 -122 -242 -209 -268 -161 -48 -308 41 -373
228 -18 53 -23 88 -23 190 -1 136 11 204 51 284 32 63 102 130 156 149 66 24
153 21 212 -7z m3280 -21 c130 -37 205 -154 220 -345 10 -119 -7 -229 -48
-310 -56 -112 -131 -150 -297 -150 l-80 0 0 409 c0 318 3 411 13 415 18 8 136
-3 192 -19z m-4268 -4 c58 -27 78 -61 78 -137 0 -69 -17 -102 -73 -140 -36
-25 -109 -38 -152 -29 l-30 7 0 159 0 159 68 0 c44 0 81 -7 109 -19z m2783 -3
c77 -39 101 -127 59 -215 -30 -63 -86 -93 -172 -93 l-67 0 0 165 0 165 68 0
c50 0 79 -6 112 -22z m4446 -280 c41 -128 74 -234 74 -235 0 -6 -256 -3 -276
3 -20 5 -18 12 43 231 35 124 63 233 63 242 0 44 29 -29 96 -241z"/>
</g>
</svg>
